<svg xmlns="http://www.w3.org/2000/svg" version="1.1" xmlns:xlink="http://www.w3.org/1999/xlink" xmlns:svgjs="http://svgjs.dev/svgjs" width="1000" height="623" viewBox="0 0 1000 623"><g transform="matrix(1,0,0,1,-0.6060606060606233,0.2522267206477409)"><svg viewBox="0 0 396 247" data-background-color="#ffffff" preserveAspectRatio="xMidYMid meet" height="623" width="1000" xmlns="http://www.w3.org/2000/svg" xmlns:xlink="http://www.w3.org/1999/xlink"><g id="tight-bounds" transform="matrix(1,0,0,1,0.2400000000000091,-0.09999999999999432)"><svg viewBox="0 0 395.52 247.2" height="247.2" width="395.52"><g><svg></svg></g><g><svg viewBox="0 0 395.52 247.2" height="247.2" width="395.52"><g transform="matrix(1,0,0,1,75.54432,53.611601948153975)"><svg viewBox="0 0 244.43135999999998 139.97679610369204" height="139.97679610369204" width="244.43135999999998"><g><svg viewBox="0 0 244.43135999999998 139.97679610369204" height="139.97679610369204" width="244.43135999999998"><g><svg viewBox="0 0 244.43135999999998 139.97679610369204" height="139.97679610369204" width="244.43135999999998"><g><svg viewBox="0 0 244.43135999999998 139.97679610369204" height="139.97679610369204" width="244.43135999999998"><g id="textblocktransform"><svg viewBox="0 0 244.43135999999998 139.97679610369204" height="139.97679610369204" width="244.43135999999998" id="textblock"><g><svg viewBox="0 0 244.43135999999998 139.97679610369204" height="139.97679610369204" width="244.43135999999998"><g transform="matrix(1,0,0,1,0,0)"><svg width="244.43135999999998" viewBox="1.5 -36 63.650001525878906 36.45000076293945" height="139.97679610369204" data-palette-color="#f5ba41"><path d="M12.85 0.4L12.85 0.4Q11.15 0.4 9.7 0.05 8.25-0.3 6.68-1.43 5.1-2.55 4-4.4L4-4.4Q1.5-8.6 1.5-17.05L1.5-17.05Q1.5-21.7 2.75-25.25 4-28.8 5.9-30.78 7.8-32.75 10.45-34 13.1-35.25 15.4-35.63 17.7-36 20.3-36L20.3-36Q26.3-36 28.75-34.98 31.2-33.95 31.2-31.05L31.2-31.05Q31.2-28.75 30.35-26.08 29.5-23.4 27.85-23.4L27.85-23.4Q27.45-23.4 24.45-24.18 21.45-24.95 19.95-24.95L19.95-24.95Q15.65-24.95 15.65-17.7L15.65-17.7Q15.65-14.05 16.65-12.28 17.65-10.5 19.15-10.3L19.15-10.3 19.15-14.8Q19.15-16.05 21.7-17.1 24.25-18.15 26.6-18.15 28.95-18.15 30.03-17.85 31.1-17.55 31.5-17L31.5-17Q32.2-16.1 32.2-15.4L32.2-15.4 32.2-1.55Q32.2-0.9 29.58-0.5 26.95-0.1 24.13-0.1 21.3-0.1 20.55-0.38 19.8-0.65 19.7-1.9L19.7-1.9 19.35-4.85 18.95-4.85Q18.6-2.7 17.18-1.15 15.75 0.4 12.85 0.4ZM61.15-2.1Q59.65-1 56.97-0.28 54.3 0.45 50.07 0.45 45.85 0.45 42.05-0.25 38.25-0.95 36.6-1.8 34.95-2.65 34.95-3.45L34.95-3.45Q34.95-6.25 35.75-9.28 36.55-12.3 37.65-12.3L37.65-12.3Q37.85-12.3 41.8-10.95 45.75-9.6 47.75-9.6 49.75-9.6 50.35-10.03 50.95-10.45 50.95-11.25 50.95-12.05 49.85-12.68 48.75-13.3 47.1-13.78 45.45-14.25 43.52-15.15 41.6-16.05 39.95-17.15 38.3-18.25 37.2-20.28 36.1-22.3 36.1-24.9L36.1-24.9Q36.1-36 49.35-36L49.35-36Q54.3-36 57.9-35.38 61.5-34.75 62.97-33.98 64.45-33.2 64.45-32.45L64.45-32.45Q64.45-29.85 63.22-26.85 62-23.85 60.85-23.85L60.85-23.85Q60.65-23.85 59.55-24.3L59.55-24.3Q56.25-25.75 54.07-25.75 51.9-25.75 51.12-25.35 50.35-24.95 50.35-24.13 50.35-23.3 51.45-22.78 52.55-22.25 54.17-21.83 55.8-21.4 57.72-20.53 59.65-19.65 61.3-18.48 62.95-17.3 64.05-15.15 65.15-13 65.15-10.15L65.15-10.15Q65.15-7.15 63.6-4.7L63.6-4.7Q62.65-3.2 61.15-2.1Z" opacity="1" transform="matrix(1,0,0,1,0,0)" fill="#f5ba41" class="wordmark-text-0" data-fill-palette-color="primary" id="text-0"></path></svg></g></svg></g></svg></g></svg></g></svg></g></svg></g></svg></g><g><path d="M0 123.6c0-68.262 55.338-123.6 123.6-123.6 34.58 0 65.844 14.201 88.277 37.089l-9.077 0c-20.867-19.114-48.671-30.777-79.2-30.777-64.777 0-117.288 52.512-117.288 117.288 0 64.777 52.512 117.288 117.288 117.288 30.528 0 58.333-11.663 79.2-30.777h9.077c-22.433 22.888-53.697 37.089-88.277 37.089-68.262 0-123.6-55.338-123.6-123.6z" fill="#f5ba41" stroke="transparent" data-fill-palette-color="tertiary"></path></g></svg></g><defs></defs></svg><rect width="395.52" height="247.2" fill="none" stroke="none" visibility="hidden"></rect></g></svg></g></svg>